<svg width="1038" height="765" viewBox="0 0 1038 765" fill="none" xmlns="http://www.w3.org/2000/svg">
<g clip-path="url(#clip0)">
<path d="M1012 184.064H637V597.064H1012V184.064Z" fill="#F2F2F2"/>
<path d="M262 691.064C406.699 691.064 524 573.762 524 429.064C524 284.365 406.699 167.064 262 167.064C117.301 167.064 0 284.365 0 429.064C0 573.762 117.301 691.064 262 691.064Z" fill="#F2F2F2"/>
<path d="M996.917 571.224V455.131" stroke="#3F3D56" stroke-width="2" stroke-miterlimit="10"/>
<path d="M996.917 471.548C1005.98 471.548 1013.33 464.198 1013.33 455.131C1013.33 446.064 1005.98 438.713 996.917 438.713C987.85 438.713 980.5 446.064 980.5 455.131C980.5 464.198 987.85 471.548 996.917 471.548Z" fill="#3F3D56"/>
<path d="M996.917 526.682C996.917 526.682 994.572 476.239 946.493 482.102Z" fill="#3F3D56"/>
<path d="M850.007 571.379V189.375" stroke="#3F3D56" stroke-width="2" stroke-miterlimit="10"/>
<path d="M850.007 205.609C859.074 205.609 866.424 198.259 866.424 189.192C866.424 180.125 859.074 172.775 850.007 172.775C840.94 172.775 833.59 180.125 833.59 189.192C833.59 198.259 840.94 205.609 850.007 205.609Z" fill="#3F3D56"/>
<path d="M799.583 485.775C808.65 485.775 816 478.424 816 469.357C816 460.29 808.65 452.94 799.583 452.94C790.516 452.94 783.165 460.29 783.165 469.357C783.165 478.424 790.516 485.775 799.583 485.775Z" fill="#3F3D56"/>
<path d="M850.007 273.052C850.007 273.052 847.662 222.609 799.583 228.472Z" fill="#3F3D56"/>
<path d="M850.007 416.052C850.007 416.052 847.662 365.609 799.583 371.472Z" fill="#3F3D56"/>
<path d="M850.007 566.866C850.007 566.866 860.561 474.048 799.583 469.357" stroke="#3F3D56" stroke-width="2" stroke-miterlimit="10"/>
<path d="M900.439 485.775C909.506 485.775 916.856 478.424 916.856 469.357C916.856 460.29 909.506 452.94 900.439 452.94C891.372 452.94 884.022 460.29 884.022 469.357C884.022 478.424 891.372 485.775 900.439 485.775Z" fill="#3F3D56"/>
<path d="M850.014 566.866C850.014 566.866 839.46 474.048 900.439 469.357" stroke="#3F3D56" stroke-width="2" stroke-miterlimit="10"/>
<path d="M901.439 331.775C910.506 331.775 917.856 324.424 917.856 315.357C917.856 306.29 910.506 298.94 901.439 298.94C892.372 298.94 885.022 306.29 885.022 315.357C885.022 324.424 892.372 331.775 901.439 331.775Z" fill="#3F3D56"/>
<path d="M851.014 412.866C851.014 412.866 840.46 320.048 901.439 315.357" stroke="#3F3D56" stroke-width="2" stroke-miterlimit="10"/>
<path d="M736.356 571.879V339.692" stroke="#3F3D56" stroke-width="2" stroke-miterlimit="10"/>
<path d="M736.356 356.109C745.423 356.109 752.773 348.759 752.773 339.692C752.773 330.625 745.423 323.275 736.356 323.275C727.289 323.275 719.939 330.625 719.939 339.692C719.939 348.759 727.289 356.109 736.356 356.109Z" fill="#3F3D56"/>
<path d="M736.356 406.552C736.356 406.552 734.011 356.109 685.932 361.972Z" fill="#3F3D56"/>
<path d="M736.356 567.366C736.356 567.366 746.91 474.548 685.932 469.857" stroke="#3F3D56" stroke-width="2" stroke-miterlimit="10"/>
<path d="M685.932 486.275C694.999 486.275 702.349 478.924 702.349 469.857C702.349 460.79 694.999 453.44 685.932 453.44C676.865 453.44 669.514 460.79 669.514 469.857C669.514 478.924 676.865 486.275 685.932 486.275Z" fill="#3F3D56"/>
<path d="M736 301.064C771.346 301.064 800 272.41 800 237.064C800 201.718 771.346 173.064 736 173.064C700.654 173.064 672 201.718 672 237.064C672 272.41 700.654 301.064 736 301.064Z" fill="#FF6584"/>
<path d="M85 100H1077" stroke="#3F3D56" stroke-width="2" stroke-miterlimit="10"/>
<path d="M95.0638 87.1277C101.174 87.1277 106.128 82.1742 106.128 76.0638C106.128 69.9534 101.174 65 95.0638 65C88.9534 65 84 69.9534 84 76.0638C84 82.1742 88.9534 87.1277 95.0638 87.1277Z" fill="#6C63FF"/>
<path d="M125.064 87.1277C131.174 87.1277 136.128 82.1742 136.128 76.0638C136.128 69.9534 131.174 65 125.064 65C118.953 65 114 69.9534 114 76.0638C114 82.1742 118.953 87.1277 125.064 87.1277Z" fill="#6C63FF"/>
<path d="M155.064 87.1277C161.174 87.1277 166.128 82.1742 166.128 76.0638C166.128 69.9534 161.174 65 155.064 65C148.953 65 144 69.9534 144 76.0638C144 82.1742 148.953 87.1277 155.064 87.1277Z" fill="#6C63FF"/>
<path d="M1037 159.064H662V572.064H1037V159.064Z" stroke="#3F3D56" stroke-width="2" stroke-miterlimit="10"/>
<path d="M136 173.064V685.064" stroke="#3F3D56" stroke-width="2" stroke-miterlimit="10"/>
<path d="M221.57 258.015C221.57 258.015 218.896 267.819 224.243 271.384C229.591 274.949 231.373 291.883 231.373 291.883L220.678 321.294L192.158 326.642L181.463 306.143V275.84C181.463 275.84 185.028 260.689 184.137 256.232C183.246 251.776 221.57 258.015 221.57 258.015Z" fill="#FFB9B9"/>
<path opacity="0.2" d="M221.57 258.015C221.57 258.015 218.896 267.819 224.243 271.384C229.591 274.949 231.373 291.883 231.373 291.883L220.678 321.294L192.158 326.642L181.463 306.143V275.84C181.463 275.84 185.028 260.689 184.137 256.232C183.246 251.776 221.57 258.015 221.57 258.015Z" fill="black"/>
<path d="M250.09 426.462L273.262 430.919C273.262 430.919 275.045 456.765 273.262 463.004C271.48 469.243 269.697 476.373 271.48 478.155C273.262 479.938 263.459 525.392 264.35 528.065C265.241 530.739 267.024 538.761 266.132 544.108C265.241 549.456 262.567 547.673 264.35 553.021C266.132 558.368 267.915 559.259 266.132 562.824C264.35 566.389 255.437 652.841 252.764 653.733C250.09 654.624 226.026 655.515 226.026 653.733C226.026 651.95 234.047 638.581 231.373 635.016C228.7 631.451 232.265 570.846 232.265 568.172C232.265 565.498 237.612 561.042 234.938 559.259C232.265 557.477 230.482 555.694 231.373 553.021C232.265 550.347 234.047 549.456 232.265 546.782C230.482 544.108 230.482 490.633 224.243 488.85C224.243 488.85 216.222 528.066 218.896 537.869C221.57 547.673 218.005 551.238 218.005 551.238L230.482 561.933L213.548 594.018L195.723 573.52C195.723 573.52 195.723 568.172 192.158 567.281C188.593 566.39 186.811 565.498 186.811 562.824C186.811 560.151 180.572 543.217 180.572 543.217C180.572 543.217 162.747 487.068 171.659 458.548C180.572 430.027 184.005 430.971 184.005 430.971L250.09 426.462Z" fill="#2F2E41"/>
<path d="M264.35 610.952L274.154 621.647L270.589 651.059H262.567L250.09 623.43L264.35 610.952Z" fill="#FFB9B9"/>
<path d="M270.589 630.56C270.589 630.56 267.024 638.581 264.35 636.799C261.676 635.016 260.79 632.342 256.777 632.342C252.763 632.342 249.198 633.234 250.09 635.016C250.981 636.799 261.676 656.406 261.676 656.406C263.245 659.753 264.059 663.405 264.059 667.101C264.059 670.798 263.245 674.449 261.676 677.797C256.328 689.383 275.936 695.622 279.501 683.144C283.066 670.666 283.957 656.406 283.066 651.059C282.175 645.711 287.522 618.082 287.522 618.082C287.522 618.082 273.124 611.445 268.737 611.199C268.737 611.199 272.371 626.995 270.589 630.56Z" fill="#2F2E41"/>
<path d="M246.525 650.168L250.09 660.863C250.09 660.863 250.09 671.558 253.655 676.905C257.22 682.253 260.785 693.839 246.525 694.73C232.265 695.622 226.026 690.274 226.026 690.274C226.026 690.274 228.7 683.144 226.026 680.47C223.352 677.796 226.026 672.449 226.026 672.449L228.7 651.059L246.525 650.168Z" fill="#2F2E41"/>
<path d="M222.461 561.042H230.482L270.589 613.626C270.589 613.626 263.459 630.56 252.763 632.342C252.763 632.342 250.981 631.451 242.96 626.104C234.938 620.756 213.548 594.018 213.548 594.018L210.874 578.867L222.461 561.042Z" fill="#2F2E41"/>
<path d="M202.853 269.601C218.604 269.601 231.373 256.832 231.373 241.081C231.373 225.33 218.604 212.561 202.853 212.561C187.102 212.561 174.333 225.33 174.333 241.081C174.333 256.832 187.102 269.601 202.853 269.601Z" fill="#FFB9B9"/>
<path d="M237.612 277.623L228.7 274.058C228.7 274.058 227.808 305.252 210.874 305.252C193.941 305.252 176.115 300.795 176.115 291.883C176.115 282.97 161.855 307.925 161.855 307.925C161.855 307.925 175.224 397.051 174.333 397.942C173.442 398.833 184.137 446.07 184.137 446.07C184.137 446.07 229.591 447.852 244.742 441.614C259.894 435.375 264.35 423.789 264.35 423.789L258.111 345.358L245.633 284.753L237.612 277.623Z" fill="#6C63FF"/>
<path d="M222.466 269.601C222.466 269.601 226.026 266.036 231.373 269.601C236.721 273.166 269.697 281.188 269.697 283.861V317.729C269.697 317.729 270.589 323.077 267.915 326.642C265.241 330.207 259.002 343.576 262.567 349.814C266.132 356.053 279.501 428.245 276.827 437.157C274.154 446.07 267.024 454.091 267.024 454.091C267.024 454.091 228.7 372.987 228.7 349.814C228.7 326.642 229.072 298.213 229.072 298.213L222.466 269.601Z" fill="#575A89"/>
<path d="M261.676 284.753H269.697C269.697 284.753 300 342.684 300 354.271C300 365.857 280.392 430.027 278.61 430.919C276.827 431.81 271.48 421.115 271.48 421.115L267.024 385.465C267.024 385.465 275.936 364.074 273.262 360.509C270.589 356.944 257.22 329.315 257.22 329.315L261.676 284.753Z" fill="#575A89"/>
<path d="M182.781 269.601C182.781 269.601 172.55 276.731 170.768 279.405C168.985 282.079 142.248 297.23 141.357 300.795C140.465 304.36 161.855 334.663 161.855 334.663C161.855 334.663 170.768 384.573 170.768 388.138C170.768 391.703 174.333 452.309 174.333 452.309C174.333 452.309 210.874 463.004 210.874 456.765C210.874 450.526 211.766 361.401 206.418 341.793C201.071 322.185 182.781 269.601 182.781 269.601Z" fill="#575A89"/>
<path d="M188.593 454.091C188.593 454.091 218.896 495.089 202.853 494.198C186.811 493.306 176.115 458.548 176.115 458.548L188.593 454.091Z" fill="#FFB9B9"/>
<path d="M152.052 298.121L141.356 300.795C141.356 300.795 132.444 379.226 137.791 389.921C143.139 400.616 171.659 470.134 171.659 467.46C171.659 464.786 196.748 460.021 195.79 457.502C194.832 454.982 189.484 444.287 187.702 440.722C185.919 437.157 183.246 432.701 184.137 428.245C185.028 423.789 174.333 404.714 174.333 404.714C174.333 404.714 171.659 393.486 170.768 388.138C169.877 382.791 161.855 323.968 161.855 323.968L152.052 298.121Z" fill="#575A89"/>
<path d="M230.817 219.003C230.272 217.326 229.121 215.912 227.589 215.038C227.669 213.268 227.439 211.497 226.908 209.806C225.133 204.866 220.927 205.149 216.959 202.965C215.237 202.017 215.344 201.18 214.448 199.623C213.244 197.555 211.485 195.866 209.371 194.748C206.825 193.221 204.137 191.649 201.126 191.456C194.797 191.05 189.944 196.653 183.895 198.451C181.229 199.244 178.364 199.276 175.683 200.026C173.003 200.775 170.329 202.564 169.929 205.169C169.745 206.371 170.07 207.605 169.883 208.807C169.511 211.197 167.284 212.87 165.793 214.836C162.496 219.182 162.873 225.322 165.51 230.05C166.068 231.033 166.704 231.969 167.411 232.851C167.635 235.098 168.318 237.275 169.419 239.248C172.055 243.976 176.592 247.51 181.332 250.446C180.944 248.88 180.709 247.281 180.629 245.671C180.562 245.133 180.636 244.588 180.845 244.088C181.372 243.05 182.767 242.774 183.83 242.205C186.033 241.027 186.897 238.42 186.96 236.036C187.024 233.652 186.487 231.264 186.753 228.893C186.767 228.34 186.902 227.797 187.147 227.302C187.392 226.806 187.742 226.369 188.172 226.022C188.994 225.584 189.918 225.376 190.848 225.422C195.361 225.248 200.076 225.17 204.057 223.162C205.349 222.355 206.728 221.699 208.168 221.204C211.551 220.374 215.008 222.606 216.958 225.337C218.908 228.068 219.88 231.319 221.678 234.14C223.477 236.962 226.585 239.478 230.063 239.144C230.256 239.145 230.448 239.108 230.626 239.033C230.805 238.958 230.967 238.848 231.101 238.709C231.251 238.458 231.318 238.167 231.293 237.876L231.487 225.363C231.648 223.22 231.421 221.066 230.817 219.003Z" fill="#2F2E41"/>
</g>
<defs>
<clipPath id="clip0">
<rect width="1038" height="764.064" fill="white"/>
</clipPath>
</defs>
</svg>
